<?xml version="1.0" standalone="no"?> <!DOCTYPE svg PUBLIC "-//W3C//DTD SVG 1.0//EN" "http://www.w3.org/TR/2001/REC-SVG-20010904/DTD/svg10.dtd" > <svg xmlns="http://www.w3.org/2000/svg" width="100%" height="100%">
<defs >
<font id="turkcellsaturamedium" horiz-adv-x="367" ><font-face
    font-family="Turkcell Satura"
    units-per-em="1000"
    panose-1="0 0 0 0 0 0 0 0 0 0"
    ascent="838"
    descent="-226"
    alphabetic="0" />
<missing-glyph horiz-adv-x="190" />
<glyph unicode=" " glyph-name="space" horiz-adv-x="190" />
<glyph unicode="!" glyph-name="exclam" horiz-adv-x="248" d="M87 172Q83 281 80 356T75 482T72 561T71 609Q71 637 86 652T124 667Q148 667 163 652T178 609Q178 591 177 562T174 482T169 357T162 172H87ZM64 51Q64 76 81 93T123 111Q149 111 166 93T183 51Q183
26 166 10T123 -7Q98 -7 81 9T64 51Z" />
<glyph unicode="&quot;" glyph-name="quotedbl" horiz-adv-x="329" d="M48 658H137L127 464H57L48 658ZM193 658H282L272 464H202L193 658Z" />
<glyph unicode="#" glyph-name="numbersign" horiz-adv-x="460" d="M94 186H29V250H100L113 376H44V440H120L139 618H210L191 440H294L313 618H384L365 440H431V376H359L345 250H415V186H339L320 0H249L268 186H165L146 0H75L94 186ZM274 250L287 376H184L171 250H274Z" />
<glyph unicode="$" glyph-name="dollar" horiz-adv-x="459" d="M208 -8Q137 -3 94 27T31 98L103 150Q109 139 117 127T138 104T168 85T208 73V282Q181 294 154 308T105 343T70 392T56 462Q56 531 97 573T208 624V682H270V625Q304 622 329 612T372 589T402 560T420
530L349 482Q340 501 321 518T270 542V351Q298 338 325 323T375 286T412 234T426 162Q426 121 414 91T380 41T330 10T270 -6V-92H208V-8ZM270 73Q306 81 320 105T334 161Q334 193 317 215T270 253V73ZM208 542Q176 537 161 517T146 467Q146 437 163 417T208 380V542Z"
/>
<glyph unicode="%" glyph-name="percent" horiz-adv-x="866" d="M572 618H654L297 0H215L572 618ZM195 234Q119 234 83 276T47 422Q47 531 85 576T206 621Q244 621 272 611T318 579T346 520T355 430Q355 377 346 340T317 279T267 245T195 234ZM198 299Q217 299
231 305T256 327T270 369T275 436Q275 504 258 529T202 555Q182 555 168 549T145 528T132 486T127 419Q127 351 143 325T198 299ZM659 -5Q584 -5 548 37T511 183Q511 292 549 337T670 382Q709 382 737 372T783 340T810 281T819 191Q819 138 810 101T781 40T731
6T659 -5ZM663 60Q682 60 696 66T720 88T734 130T739 197Q739 265 722 290T666 316Q647 316 633 310T610 289T596 247T591 180Q591 112 607 86T663 60Z" />
<glyph unicode="&amp;" glyph-name="ampersand" horiz-adv-x="581" d="M416 44Q381 20 337 6T238 -9Q141 -9 90 34T38 151Q38 213 72 259T185 350Q157 388 136 430T115 520Q115 548 123 574T151 621T202 654T280 667Q326 667 357 654T407 619T435 572T444 519Q444
457 412 413T307 325L428 168Q446 195 457 224T477 283L561 256Q550 220 531 179T480 100L559 0H449L416 44ZM229 291Q175 259 153 229T131 161Q131 119 161 94T243 69Q281 69 312 79T368 107L229 291ZM262 383Q314 414 334 443T355 514Q355 546 337 569T278 592Q247
592 226 575T204 519Q204 482 219 451T262 383Z" />
<glyph unicode="&apos;" glyph-name="quotesingle" horiz-adv-x="184" d="M48 658H137L127 464H57L48 658Z" />
<glyph unicode="(" glyph-name="parenleft" horiz-adv-x="321" d="M239 -226Q143 -138 100 -18T57 241Q57 379 100 499T239 708L294 656Q249 609 220 555T175 446T152 339T146 241Q146 196 152 143T174 35T220 -74T294 -175L239 -226Z" />
<glyph unicode=")" glyph-name="parenright" horiz-adv-x="321" d="M27 -175Q72 -128 101 -74T146 35T169 143T175 241Q175 286 169 338T147 446T101 555T27 656L82 708Q178 620 221 500T264 241Q264 103 221 -17T82 -226L27 -175Z" />
<glyph unicode="*" glyph-name="asterisk" horiz-adv-x="352" d="M53 520L126 561L53 602L80 647L150 604V687H202V604L272 647L299 602L225 561L299 520L272 475L202 518V435H150V518L80 475L53 520Z" />
<glyph unicode="+" glyph-name="plus" horiz-adv-x="459" d="M192 224H31V298H192V460H267V298H429V224H267V62H192V224Z" />
<glyph unicode="," glyph-name="comma" horiz-adv-x="208" d="M61 97H155L103 -93H23L61 97Z" />
<glyph unicode="-" glyph-name="hyphen" horiz-adv-x="322" d="M34 308H289V224H34V308Z" />
<glyph unicode="." glyph-name="period" horiz-adv-x="208" d="M45 51Q45 76 61 93T104 111Q130 111 147 93T164 51Q164 26 147 10T104 -7Q78 -7 62 9T45 51Z" />
<glyph unicode="/" glyph-name="slash" horiz-adv-x="387" d="M288 687H375L100 -39H12L288 687Z" />
<glyph unicode="0" glyph-name="zero" horiz-adv-x="460" d="M225 -8Q170 -8 133 8T73 60T40 155T30 300Q30 390 40 452T75 553T138 609T236 627Q291 627 328 611T387 558T420 462T430 315Q430 227 420 166T385 66T322 10T225 -8ZM227 72Q259 72 280 84T313 126T331
202T336 321Q336 382 332 425T317 495T285 534T231 546Q198 546 177 534T144 494T127 417T122 298Q122 236 126 193T141 123T173 84T227 72Z" />
<glyph unicode="1" glyph-name="one" horiz-adv-x="389" d="M55 80H171V521Q156 516 141 509T112 493T88 478T72 467L29 534Q38 542 59 557T110 586T179 611T260 623V80H376V0H55V80Z" />
<glyph unicode="2" glyph-name="two" horiz-adv-x="460" d="M33 0V76L195 242Q231 278 255 308T293 364T314 415T321 464Q321 505 298 525T236 546Q207 546 188 537T156 516T136 490T126 470L44 502Q51 524 66 546T104 587T162 616T243 627Q332 627 375 581T419
461Q419 429 411 400T385 340T338 274T266 196L151 79H428V0H33Z" />
<glyph unicode="3" glyph-name="three" horiz-adv-x="460" d="M109 143Q113 133 120 121T139 98T171 80T218 72Q267 72 295 96T325 171Q325 228 290 259T171 291H144V366H171Q210 366 236 373T279 394T303 426T310 466Q310 502 289 524T220 546Q175 546 150 528T111
482L38 527Q58 571 106 599T223 627Q258 627 290 619T348 592T388 545T403 478Q403 446 393 422T368 379T332 349T290 331Q346 316 381 278T417 171Q417 125 401 92T358 36T293 3T214 -8Q170 -8 138 2T84 29T49 64T29 100L109 143Z" />
<glyph unicode="4" glyph-name="four" horiz-adv-x="460" d="M17 230L240 618H371V240H447V163H371V0H280V163H17V230ZM280 240V534L111 240H280Z" />
<glyph unicode="5" glyph-name="five" horiz-adv-x="460" d="M96 137Q100 129 108 118T131 97T166 79T214 72Q271 72 298 107T325 203Q325 259 301 289T216 319Q196 319 175 313T137 296H67L94 618H403V538H167L154 376Q164 381 185 386T235 392Q287 392 322 377T379
336T409 277T418 207Q418 162 407 123T371 55T308 9T214 -8Q173 -8 142 0T89 21T51 50T25 83L96 137Z" />
<glyph unicode="6" glyph-name="six" horiz-adv-x="460" d="M338 495Q329 514 310 530T253 546Q196 546 167 501T132 356Q146 364 173 372T243 381Q332 381 380 334T428 191Q428 100 381 46T233 -8Q184 -8 148 7T87 55T52 143T40 277Q40 354 51 418T89 529T156
601T258 627Q323 627 360 600T413 535L338 495ZM129 255Q129 161 153 117T239 72Q286 72 312 99T339 186Q339 248 310 274T224 301Q192 301 168 295T129 278V255Z" />
<glyph unicode="7" glyph-name="seven" horiz-adv-x="460" d="M110 0Q119 40 140 101T190 234T254 384T329 538H41V618H419V553Q374 463 339 380T279 225T236 96T208 0H110Z" />
<glyph unicode="8" glyph-name="eight" horiz-adv-x="460" d="M304 329Q371 298 400 260T430 165Q430 87 379 40T230 -8Q180 -8 143 4T80 39T43 92T30 157Q30 212 60 257T150 330Q107 352 80 388T52 475Q52 504 62 531T94 580T149 614T229 627Q274 627 307 614T363
580T395 532T406 474Q406 424 379 388T304 329ZM225 291Q166 267 145 236T123 168Q123 124 149 97T231 70Q279 70 307 93T336 166Q336 208 311 237T225 291ZM233 366Q277 381 297 407T318 467Q318 503 297 526T231 549Q186 549 164 528T142 472Q142 431 168 405T233
366Z" />
<glyph unicode="9" glyph-name="nine" horiz-adv-x="460" d="M114 143Q119 130 126 117T144 94T170 78T208 72Q268 72 296 120T327 260Q315 253 287 244T215 235Q127 235 79 283T31 429Q31 519 77 573T225 627Q275 627 311 612T372 562T407 472T419 337Q419 258
407 194T370 85T304 16T205 -8Q134 -8 94 23T37 100L114 143ZM330 363Q330 457 306 501T221 546Q174 546 147 519T120 431Q120 369 149 342T235 315Q268 315 292 322T330 340V363Z" />
<glyph unicode=":" glyph-name="colon" horiz-adv-x="208" d="M45 376Q45 400 61 417T104 435Q130 435 147 418T164 376Q164 351 147 335T104 318Q78 318 62 334T45 376ZM45 51Q45 76 61 93T104 111Q130 111 147 93T164 51Q164 26 147 10T104 -7Q78 -7 62 9T45 51Z" />
<glyph unicode=";" glyph-name="semicolon" horiz-adv-x="208" d="M61 97H155L103 -93H23L61 97ZM46 376Q46 400 62 417T104 435Q130 435 147 418T164 376Q164 351 147 335T104 318Q79 318 63 334T46 376Z" />
<glyph unicode="&lt;" glyph-name="less" horiz-adv-x="459" d="M41 298L418 461V386L123 261L418 137V61L41 224V298Z" />
<glyph unicode="=" glyph-name="equal" horiz-adv-x="459" d="M31 206H429V132H31V206ZM31 390H429V316H31V390Z" />
<glyph unicode="&gt;" glyph-name="greater" horiz-adv-x="459" d="M41 137L336 261L41 386V461L418 298V224L41 61V137Z" />
<glyph unicode="?" glyph-name="question" horiz-adv-x="378" d="M119 173Q120 215 131 247T159 306T193 353T228 397T254 443T265 498Q265 536 246 559T183 583Q162 583 147 577T121 563T103 544T91 525L17 570Q24 585 37 602T72 634T122 657T189 667Q267 667
314 626T362 507Q362 470 352 441T325 386T288 337T250 290T219 237T201 173H119ZM100 51Q100 76 117 93T159 111Q185 111 202 93T219 51Q219 27 202 10T159 -7Q134 -7 117 9T100 51Z" />
<glyph unicode="@" glyph-name="at" horiz-adv-x="815" d="M580 -152Q568 -158 551 -162T513 -170T472 -174T430 -175Q239 -175 144 -70T48 233Q48 328 70 404T139 533T256 614T425 643Q513 643 577 620T684 554T748 450T769 312Q769 160 689 76T442 -8Q339 -8
292 25T244 121Q244 160 261 188T311 236T389 267T491 283V310Q491 328 489 342T480 368T460 385T423 391Q391 391 367 379T325 338L258 377Q275 410 317 436T428 463Q468 463 496 453T541 426T567 385T575 333V82Q682 122 682 305Q682 436 622 501T429 566Q348
566 292 543T201 476T150 372T134 236Q134 67 208 -13T431 -94Q478 -94 517 -87T580 -69V-152ZM491 213Q442 210 411 201T361 180T337 154T330 126Q330 96 355 81T440 65Q454 65 466 65T491 68V213Z" />
<glyph unicode="A" glyph-name="A" horiz-adv-x="556" d="M178 639Q189 649 214 657T275 665Q309 665 331 656T368 626T395 571T418 486L531 0H434L385 212H169L119 0H25L178 639ZM366 294L337 426Q325 478 318 508T303 555T289 575T272 580Q259 580 253 576L188
294H366Z" />
<glyph unicode="B" glyph-name="B" horiz-adv-x="507" d="M70 635Q96 650 140 658T231 667Q289 667 330 654T396 617T434 562T446 493Q446 459 437 434T414 392T382 363T347 346Q367 341 389 330T430 301T461 253T473 183Q473 127 453 90T399 31T324 0T239 -9Q176
-9 132 2T70 25V635ZM166 84Q173 79 193 77T239 74Q306 74 340 100T374 186Q374 241 339 270T220 300H166V84ZM218 380Q293 380 321 408T349 486Q349 507 344 525T326 557T288 577T227 585Q212 585 194 584T166 578V380H218Z" />
<glyph unicode="C" glyph-name="C" horiz-adv-x="520" d="M497 55Q488 46 473 35T434 14T380 -2T307 -9Q228 -9 178 16T100 86T61 191T50 322Q50 393 59 455T96 565T171 639T298 667Q344 667 377 657T434 630T471 593T495 551L413 508Q400 539 372 561T295 583Q252
583 224 567T179 519T156 440T149 331Q149 268 156 220T182 140T232 92T311 76Q365 76 398 94T449 129L497 55Z" />
<glyph unicode="D" glyph-name="D" horiz-adv-x="587" d="M70 631Q83 638 104 644T151 656T208 664T268 667Q344 667 395 647T478 586T523 485T537 345Q537 238 520 170T467 61T380 6T257 -9Q218 -9 186 -5T129 5T89 17T70 26V631ZM166 92Q180 84 205 80T267 75Q311
75 343 86T397 128T428 210T438 346Q438 404 431 448T405 523T353 568T269 583Q240 583 213 579T166 569V92Z" />
<glyph unicode="E" glyph-name="E" horiz-adv-x="482" d="M67 658H428V575H163V389H389V305H163V83H439V0H67V658Z" />
<glyph unicode="F" glyph-name="F" horiz-adv-x="460" d="M70 658H435V575H166V374H381V291H166V0H70V658Z" />
<glyph unicode="G" glyph-name="G" horiz-adv-x="555" d="M295 347H500V44Q476 25 428 8T308 -9Q229 -9 179 15T100 84T61 189T50 322Q50 394 60 456T98 566T175 640T305 667Q352 667 386 656T444 628T483 589T506 546Q486 536 465 527T424 506Q409 538 380 560T298
583Q254 583 225 567T179 519T155 439T148 324Q148 262 155 216T180 138T231 90T312 74Q343 74 367 79T405 91V265H295V347Z" />
<glyph unicode="H" glyph-name="H" horiz-adv-x="608" d="M70 658H166V391H443V658H538V0H443V306H166V0H70V658Z" />
<glyph unicode="I" glyph-name="I" horiz-adv-x="246" d="M76 658H171V0H76V658Z" />
<glyph unicode="J" glyph-name="J" horiz-adv-x="370" d="M93 119Q96 113 100 106T112 92T129 80T154 75Q204 75 204 133V658H300V136Q300 92 288 64T256 20T210 -2T154 -9Q122 -9 99 -2T59 18T31 44T14 71L93 119Z" />
<glyph unicode="K" glyph-name="K" horiz-adv-x="526" d="M70 658H165V355Q195 394 232 441T303 533T363 611T397 658H513Q462 589 411 522T307 386L516 0H410L245 304L165 199V0H70V658Z" />
<glyph unicode="L" glyph-name="L" horiz-adv-x="447" d="M65 658H161V83H427V0H65V658Z" />
<glyph unicode="M" glyph-name="M" horiz-adv-x="743" d="M70 658H208L300 377Q337 264 355 194T375 116Q375 118 379 137T392 190T414 271T447 376L541 658H672V0H582V256Q582 387 584 459T587 536Q586 534 581 515T565 464T541 387T509 289L412 0H332L234 290Q216
341 203 384T179 460T164 512T157 537Q157 532 159 460T162 256V0H70V658Z" />
<glyph unicode="N" glyph-name="N" horiz-adv-x="626" d="M70 658H188L343 375Q409 254 438 189T469 122Q469 124 467 192T464 401V658H556V0H446L282 296Q217 413 188 478T157 546Q157 543 159 475T162 273V0H70V658Z" />
<glyph unicode="O" glyph-name="O" horiz-adv-x="615" d="M304 -9Q229 -9 180 13T102 78T62 183T50 326Q50 404 61 467T102 574T182 643T311 667Q386 667 435 645T513 579T553 474T565 331Q565 252 554 189T513 82T433 15T304 -9ZM306 75Q354 75 385 90T435 136T460
217T467 333Q467 396 461 443T437 521T388 567T309 583Q261 583 230 568T181 521T156 441T149 327Q149 259 156 211T182 133T230 89T306 75Z" />
<glyph unicode="P" glyph-name="P" horiz-adv-x="506" d="M70 633Q99 649 146 658T243 667Q304 667 347 652T417 609T458 538T471 443Q471 375 454 329T406 255T336 215T249 203Q223 203 201 205T166 211V0H70V633ZM166 298Q174 292 198 289T244 286Q275 286 299
293T341 318T366 364T375 437Q375 473 369 500T348 545T307 573T242 583Q213 583 193 580T166 573V298Z" />
<glyph unicode="Q" glyph-name="Q" horiz-adv-x="615" d="M601 -115Q593 -120 578 -123T543 -126Q499 -126 464 -118T399 -95T343 -57T292 -8Q221 -7 175 16T100 82T61 186T50 326Q50 404 61 467T102 574T182 643T311 667Q386 667 435 645T513 579T553 474T565
331Q565 266 557 212T530 115T479 45T399 2Q425 -26 459 -35T541 -44Q555 -44 565 -41T581 -35L601 -115ZM306 75Q354 75 385 90T435 136T460 217T467 333Q467 396 461 443T437 521T388 567T309 583Q261 583 230 568T181 521T156 441T149 327Q149 259 156 211T182
133T230 89T306 75Z" />
<glyph unicode="R" glyph-name="R" horiz-adv-x="518" d="M70 633Q99 649 145 658T247 667Q360 667 414 614T468 466Q468 386 435 339T346 272L493 0H387L253 252Q248 251 241 251T230 251Q211 251 193 252T166 255V0H70V633ZM166 338Q177 336 193 335T227 334Q296
334 333 361T371 459Q371 519 344 551T243 583Q218 583 195 581T166 574V338Z" />
<glyph unicode="S" glyph-name="S" horiz-adv-x="467" d="M96 158Q103 145 113 131T140 104T179 83T231 75Q287 75 311 103T335 172Q335 209 314 232T261 274T192 308T123 347T70 405T48 493Q48 574 100 620T241 667Q284 667 315 658T369 633T405 600T427 566L351
517Q345 528 336 540T313 561T280 577T236 583Q189 583 165 561T141 501Q141 466 162 444T216 403T286 369T356 328T409 267T431 176Q431 127 414 92T369 35T305 2T229 -9Q187 -9 153 0T93 24T49 60T21 103L96 158Z" />
<glyph unicode="T" glyph-name="T" horiz-adv-x="462" d="M185 575H18V658H444V575H279V0H185V575Z" />
<glyph unicode="U" glyph-name="U" horiz-adv-x="585" d="M70 658H166V243Q166 194 173 162T197 111T243 83T316 75Q342 75 372 80T419 94V658H514V39Q485 20 431 6T302 -9Q233 -9 188 5T117 48T81 120T70 222V658Z" />
<glyph unicode="V" glyph-name="V" horiz-adv-x="561" d="M22 658H127L216 335Q230 284 242 239T263 158T277 102T284 76Q284 78 289 99T303 154T324 235T351 335L440 658H539L344 0H217L22 658Z" />
<glyph unicode="W" glyph-name="W" horiz-adv-x="889" d="M32 658H135L207 338Q219 285 228 239T244 158T255 101T260 75Q260 78 264 99T275 155T293 236T316 335L395 658H501L579 336Q592 284 602 239T619 159T631 103T637 75Q637 80 641 102T651 158T667 239T689
338L761 658H858L698 0H570L511 234Q476 374 462 449T445 538Q443 524 428 450T378 237L319 0H192L32 658Z" />
<glyph unicode="X" glyph-name="X" horiz-adv-x="547" d="M211 341L30 658H137L276 410L410 658H515L334 343L534 0H425L272 272L118 0H13L211 341Z" />
<glyph unicode="Y" glyph-name="Y" horiz-adv-x="503" d="M204 217L10 658H116L254 324L392 658H493L299 217V0H204V217Z" />
<glyph unicode="Z" glyph-name="Z" horiz-adv-x="507" d="M38 73L361 575H47V658H474V585L150 83H474V0H38V73Z" />
<glyph unicode="[" glyph-name="bracketleft" horiz-adv-x="276" d="M70 682H245V622H153V-142H245V-202H70V682Z" />
<glyph unicode="\" glyph-name="backslash" horiz-adv-x="387" d="M12 687H100L375 -39H288L12 687Z" />
<glyph unicode="]" glyph-name="bracketright" horiz-adv-x="276" d="M31 -202V-141H123V621H31V682H206V-202H31Z" />
<glyph unicode="^" glyph-name="asciicircum" horiz-adv-x="459" d="M205 658H253L422 305H341L230 549L118 305H38L205 658Z" />
<glyph unicode="_" glyph-name="underscore" horiz-adv-x="487" d="M-5 -65H492V-143H-5V-65Z" />
<glyph unicode="`" glyph-name="grave" horiz-adv-x="293" d="M51 664H166L242 531H160L51 664Z" />
<glyph unicode="a" glyph-name="a" horiz-adv-x="428" d="M51 392Q57 405 69 420T103 449T154 472T224 482Q305 482 340 445T376 344V37Q347 14 302 3T205 -9Q169 -9 138 -2T85 21T50 61T37 122Q37 196 97 238T287 292V330Q287 370 272 388T219 406Q181 406 158
390T122 350L51 392ZM287 219Q254 216 225 210T175 193T141 166T128 127Q128 98 149 82T213 65Q236 65 254 68T287 80V219Z" />
<glyph unicode="b" glyph-name="b" horiz-adv-x="456" d="M58 666H147V466Q163 474 186 478T234 482Q285 482 320 466T378 420T410 346T420 247Q420 170 403 121T358 44T292 5T212 -6Q150 -6 111 7T58 33V666ZM147 84Q153 78 170 74T207 69Q235 69 257 77T296
105T320 159T329 245Q329 321 305 363T216 406Q173 406 147 390V84Z" />
<glyph unicode="c" glyph-name="c" horiz-adv-x="395" d="M376 44Q361 26 325 9T226 -9Q124 -9 79 52T34 231Q34 288 44 334T78 414T138 464T226 482Q286 482 323 458T377 390L301 353Q291 374 275 389T224 405Q171 405 148 362T125 236Q125 149 151 109T235 68Q266
68 289 79T332 109L376 44Z" />
<glyph unicode="d" glyph-name="d" horiz-adv-x="456" d="M309 666H398V41Q392 36 378 28T343 12T293 -2T227 -8Q186 -8 151 3T91 41T51 114T36 231Q36 352 84 417T239 482Q258 482 278 480T309 472V666ZM309 394Q288 406 248 406Q180 406 154 364T127 235Q127
185 134 153T156 102T190 76T237 68Q259 68 279 73T309 87V394Z" />
<glyph unicode="e" glyph-name="e" horiz-adv-x="432" d="M394 46Q371 23 330 7T231 -9Q178 -9 141 6T80 52T47 125T36 223Q36 275 44 322T74 404T133 461T228 482Q275 482 307 468T358 429T386 372T395 302Q395 274 393 248T387 206H127Q128 165 135 139T156
96T190 74T236 68Q274 68 302 81T349 113L394 46ZM305 275Q306 282 306 292T307 310Q307 353 290 380T225 407Q174 407 152 374T127 275H305Z" />
<glyph unicode="f" glyph-name="f" horiz-adv-x="311" d="M89 401H18V472H89V503Q89 591 127 633T237 676Q263 676 282 671T316 659T338 644T350 630L303 574Q298 581 283 590T241 600Q210 600 194 580T178 508V472H300V401H178V0H89V401Z" />
<glyph unicode="g" glyph-name="g" horiz-adv-x="447" d="M127 -51Q138 -70 161 -85T220 -101Q265 -101 284 -79T303 -8V28Q291 22 271 19T227 16Q123 16 80 74T36 241Q36 298 47 343T84 418T149 465T246 482Q287 482 327 475T391 453V-11Q391 -63 376 -95T335
-146T280 -170T220 -176Q155 -176 117 -153T65 -102L127 -51ZM303 396Q295 400 280 403T244 406Q178 406 153 367T127 244Q127 164 151 129T235 93Q256 93 275 97T303 107V396Z" />
<glyph unicode="h" glyph-name="h" horiz-adv-x="463" d="M58 666H147V469Q163 474 185 478T237 482Q291 482 325 468T377 426T403 359T410 272V0H321V269Q321 306 317 332T302 375T271 398T219 406Q199 406 179 403T147 394V0H58V666Z" />
<glyph unicode="i" glyph-name="i" horiz-adv-x="214" d="M62 472H151V0H62V472ZM49 600Q49 623 65 639T106 656Q131 656 147 640T164 600Q164 576 148 560T106 544Q82 544 66 560T49 600Z" />
<glyph unicode="j" glyph-name="j" horiz-adv-x="221" d="M-29 -69Q-24 -75 -11 -88T29 -101Q52 -101 61 -88T70 -48V472H159V-44Q159 -82 149 -107T122 -148T82 -170T34 -177Q6 -177 -14 -171T-48 -157T-70 -140T-81 -124L-29 -69ZM57 600Q57 623 74 639T114
656Q139 656 155 640T172 600Q172 576 156 560T114 544Q91 544 74 560T57 600Z" />
<glyph unicode="k" glyph-name="k" horiz-adv-x="433" d="M58 666H147V279Q151 284 164 300T194 336T231 380T267 423T295 456T309 472H425L263 281L421 0H321L203 208L147 141V0H58V666Z" />
<glyph unicode="l" glyph-name="l" horiz-adv-x="236" d="M58 666H147V135Q147 105 155 89T197 72Q199 72 205 72T216 73L220 -2Q215 -3 204 -4T176 -5Q117 -5 88 21T58 118V666Z" />
<glyph unicode="m" glyph-name="m" horiz-adv-x="668" d="M58 450Q81 458 113 464T182 474T257 480T332 482Q418 482 472 474T558 443T602 382T614 285V0H526V273Q526 313 521 338T501 378T457 398T381 405V0H292V405Q251 404 209 400T147 391V0H58V450Z" />
<glyph unicode="n" glyph-name="n" horiz-adv-x="463" d="M58 448Q86 462 131 472T227 482Q283 482 318 469T374 430T402 367T410 284V0H321V259Q321 294 319 321T306 367T276 395T222 405Q200 405 179 402T147 394V0H58V448Z" />
<glyph unicode="o" glyph-name="o" horiz-adv-x="462" d="M226 -9Q172 -9 136 6T77 51T46 125T36 229Q36 289 46 336T79 415T141 465T236 482Q291 482 327 467T386 420T417 344T427 241Q427 182 418 136T385 58T323 8T226 -9ZM228 67Q288 67 312 107T336 246Q336
289 332 319T316 368T285 397T235 406Q204 406 184 397T151 366T133 312T127 230Q127 144 147 106T228 67Z" />
<glyph unicode="p" glyph-name="p" horiz-adv-x="456" d="M58 447Q89 465 133 473T216 482Q275 482 314 466T376 420T410 347T420 251Q420 177 405 128T363 50T298 8T214 -4Q194 -4 177 -2T147 3V-185H58V447ZM147 82Q165 72 209 72Q239 72 261 81T299 111T321
166T329 252Q329 288 324 316T306 365T270 395T211 406Q188 406 171 403T147 395V82Z" />
<glyph unicode="q" glyph-name="q" horiz-adv-x="456" d="M309 1Q290 -4 270 -6T233 -8Q177 -8 140 7T79 53T46 126T36 225Q36 285 47 332T83 413T150 464T253 482Q266 482 285 481T324 477T364 469T398 454V-185H309V1ZM309 397Q292 406 255 406Q218 406 194
395T154 362T133 307T127 229Q127 143 151 106T239 68Q259 68 279 72T309 84V397Z" />
<glyph unicode="r" glyph-name="r" horiz-adv-x="324" d="M58 446Q82 461 121 471T198 482Q240 482 271 467T320 417L249 380Q241 391 228 398T194 406Q180 406 168 403T147 395V0H58V446Z" />
<glyph unicode="s" glyph-name="s" horiz-adv-x="377" d="M85 125Q98 101 122 84T186 66Q219 66 238 80T258 125Q258 149 242 164T201 190T148 211T95 238T55 280T38 347Q38 377 49 402T80 444T130 472T195 482Q259 482 295 458T346 402L278 360Q254 407 192 407Q160
407 143 392T125 351Q125 328 141 314T182 288T236 266T289 239T330 198T347 132Q347 94 334 68T298 24T246 -1T185 -9Q149 -9 121 -1T73 19T40 46T20 77L85 125Z" />
<glyph unicode="t" glyph-name="t" horiz-adv-x="324" d="M87 401H18V472H87V595H176V472H295V401H176V142Q176 107 185 89T223 70Q258 70 280 94L319 30Q302 13 275 3T208 -8Q146 -8 117 23T87 121V401Z" />
<glyph unicode="u" glyph-name="u" horiz-adv-x="459" d="M53 472H142V219Q142 180 145 152T158 106T187 78T238 69Q258 69 279 74T312 87V472H401V38Q373 18 331 5T231 -9Q175 -9 141 5T87 46T60 112T53 203V472Z" />
<glyph unicode="v" glyph-name="v" horiz-adv-x="447" d="M17 472H116L170 280Q180 242 190 205T208 138T221 88T226 67Q226 68 231 87T244 137T262 204T283 279L338 472H431L282 0H165L17 472Z" />
<glyph unicode="w" glyph-name="w" horiz-adv-x="666" d="M27 472H125L167 279Q174 243 180 209T192 148T200 103T204 82Q204 85 207 102T216 147T230 208T247 278L295 472H380L427 278Q436 243 443 210T455 149T464 104T469 82Q469 86 472 104T479 149T491 209T506
279L549 472H640L524 0H415L383 130Q360 224 347 283T333 351Q331 342 318 284T281 132L248 0H141L27 472Z" />
<glyph unicode="x" glyph-name="x" horiz-adv-x="426" d="M157 244L22 472H124L217 306L308 472H407L269 244L414 0H312L209 181L110 0H12L157 244Z" />
<glyph unicode="y" glyph-name="y" horiz-adv-x="446" d="M66 -78Q74 -85 87 -91T118 -98Q129 -98 138 -95T156 -82T171 -57T187 -15L194 9Q167 28 147 66T107 172L18 472H114L185 215Q196 172 206 146T225 108L337 472H430L260 -48Q246 -89 230 -114T196 -153T158
-171T115 -176Q83 -176 60 -167T25 -146L66 -78Z" />
<glyph unicode="z" glyph-name="z" horiz-adv-x="398" d="M30 64L257 399H38V472H366V408L139 73H368V0H30V64Z" />
<glyph unicode="{" glyph-name="braceleft" horiz-adv-x="319" d="M114 71Q114 96 112 117T102 154T79 183T37 201V258Q64 264 79 276T102 304T112 342T114 389V482Q114 531 121 568T149 630T204 667T295 680V616Q261 616 242 607T212 580T199 536T196 476V401Q196
371 194 345T185 296T162 257T119 230Q146 219 161 202T184 163T194 115T196 58V-17Q196 -50 199 -76T212 -120T241 -147T295 -156V-220Q239 -220 204 -208T149 -171T122 -109T114 -22V71Z" />
<glyph unicode="|" glyph-name="bar" horiz-adv-x="343" d="M129 765H214V-178H129V765Z" />
<glyph unicode="}" glyph-name="braceright" horiz-adv-x="319" d="M23 -156Q57 -156 76 -147T106 -120T120 -76T123 -17V58Q123 88 124 114T133 163T156 202T199 230Q172 240 157 257T134 296T125 344T123 401V476Q123 510 120 536T107 580T77 607T23 616V680Q79
680 114 668T169 631T196 569T204 482V389Q204 363 206 342T216 305T239 276T282 258V201Q255 195 240 183T216 155T206 117T204 71V-22Q204 -72 197 -109T169 -170T114 -207T23 -220V-156Z" />
<glyph unicode="~" glyph-name="asciitilde" horiz-adv-x="475" d="M95 390Q98 384 102 376T114 360T131 348T158 343Q180 343 200 349T240 362T282 376T330 382Q353 382 371 375T402 357T425 332T440 304L380 267Q370 286 357 298T316 311Q297 311 278 305T237
292T192 278T141 272Q107 272 77 289T31 349L95 390Z" />
</font>
</defs>
</svg>
