<?xml version="1.0" standalone="no"?> <!DOCTYPE svg PUBLIC "-//W3C//DTD SVG 1.0//EN" "http://www.w3.org/TR/2001/REC-SVG-20010904/DTD/svg10.dtd" > <svg xmlns="http://www.w3.org/2000/svg" width="100%" height="100%">
<defs >
<font id="turkcellsaturabold" horiz-adv-x="384" ><font-face
    font-family="Turkcell Satura"
    units-per-em="1000"
    panose-1="2 0 0 0 0 0 0 0 0 0"
    ascent="856"
    descent="-233"
    alphabetic="0" />
<missing-glyph horiz-adv-x="190" />
<glyph unicode=" " glyph-name="space" horiz-adv-x="190" />
<glyph unicode="!" glyph-name="exclam" horiz-adv-x="247" d="M73 189Q66 341 60 447T54 594Q54 627 72 648T124 669Q159 669 177 648T195 594Q195 553 189 447T175 189H73ZM51 63Q51 94 71 114T123 135Q155 135 175 114T196 63Q196 33 176 13T123 -8Q91 -8 71
12T51 63Z" />
<glyph unicode="&quot;" glyph-name="quotedbl" horiz-adv-x="356" d="M41 658H155L144 448H52L41 658ZM201 658H315L304 448H212L201 658Z" />
<glyph unicode="#" glyph-name="numbersign" horiz-adv-x="460" d="M76 176H26V260H84L95 365H41V450H104L122 618H220L202 450H285L303 618H401L383 450H434V365H374L363 260H418V176H355L337 0H239L257 176H174L156 0H58L76 176ZM265 260L276 365H193L182 260H265Z" />
<glyph unicode="$" glyph-name="dollar" horiz-adv-x="459" d="M204 -9Q164 -6 133 5T78 33T40 69T15 109L109 179Q113 170 120 159T138 135T165 113T204 99V265Q175 276 147 289T95 324T58 375T43 449Q43 522 86 567T204 623V682H276V624Q311 621 338 611T385
586T420 553T442 516L348 455Q338 472 322 489T276 514V361Q305 349 334 335T387 298T426 244T441 165Q441 123 428 93T391 41T338 8T276 -8V-92H204V-9ZM276 99Q304 108 312 125T321 166Q321 210 276 235V99ZM204 514Q179 509 170 492T160 454Q160 433 171 418T204
391V514Z" />
<glyph unicode="%" glyph-name="percent" horiz-adv-x="914" d="M583 618H691L334 0H226L583 618ZM200 234Q118 234 79 276T40 423Q40 531 81 576T211 621Q253 621 284 611T335 578T364 519T374 428Q374 323 333 279T200 234ZM203 319Q219 319 231 324T252 342T264
379T268 438Q268 494 254 514T207 535Q191 535 180 530T161 512T149 476T145 417Q145 361 158 340T203 319ZM700 -5Q618 -5 579 37T540 184Q540 292 581 337T711 382Q753 382 784 372T835 339T864 280T874 189Q874 84 833 40T700 -5ZM703 80Q719 80 731 85T752
103T764 140T768 199Q768 255 754 275T707 296Q691 296 680 291T661 273T649 237T645 178Q645 122 658 101T703 80Z" />
<glyph unicode="&amp;" glyph-name="ampersand" horiz-adv-x="605" d="M418 31Q383 11 340 0T242 -11Q142 -11 87 34T31 158Q31 186 38 211T63 259T107 305T176 351Q148 389 130 429T111 519Q111 547 120 574T151 622T207 656T291 669Q343 669 378 655T434 617T464
567T473 512Q473 447 440 403T337 317L433 194Q449 221 458 249T472 301L585 267Q574 226 555 184T504 103L585 0H442L418 31ZM236 272Q190 246 173 221T155 164Q155 150 161 137T179 113T210 95T254 88Q284 88 309 95T355 114L236 272ZM278 394Q320 420 338 445T356
506Q356 535 340 553T291 572Q262 572 246 557T230 511Q230 481 243 453T278 394Z" />
<glyph unicode="&apos;" glyph-name="quotesingle" horiz-adv-x="196" d="M41 658H155L144 448H52L41 658Z" />
<glyph unicode="(" glyph-name="parenleft" horiz-adv-x="334" d="M237 -233Q189 -189 154 -136T96 -21T61 106T50 241Q50 310 61 376T95 503T154 617T237 715L314 644Q269 597 241 545T196 441T174 337T168 241Q168 196 174 145T196 42T240 -63T314 -163L237 -233Z" />
<glyph unicode=")" glyph-name="parenright" horiz-adv-x="334" d="M20 -163Q65 -116 93 -64T138 41T160 145T166 241Q166 286 160 337T138 440T94 545T20 644L97 715Q145 671 180 618T238 503T273 376T284 241Q284 172 273 106T239 -21T180 -135T97 -233L20 -163Z" />
<glyph unicode="*" glyph-name="asterisk" horiz-adv-x="344" d="M40 523L109 561L40 599L73 656L139 615V694H205V615L271 656L304 599L235 561L304 523L271 466L205 507V428H139V507L73 466L40 523Z" />
<glyph unicode="+" glyph-name="plus" horiz-adv-x="459" d="M180 213H31V309H180V460H280V309H429V213H280V62H180V213Z" />
<glyph unicode="," glyph-name="comma" horiz-adv-x="218" d="M52 106H173L115 -101H12L52 106Z" />
<glyph unicode="-" glyph-name="hyphen" horiz-adv-x="322" d="M31 321H292V209H31V321Z" />
<glyph unicode="." glyph-name="period" horiz-adv-x="218" d="M37 63Q37 94 57 114T109 135Q141 135 161 114T182 63Q182 33 162 13T109 -8Q77 -8 57 12T37 63Z" />
<glyph unicode="/" glyph-name="slash" horiz-adv-x="404" d="M281 687H399L123 -39H5L281 687Z" />
<glyph unicode="0" glyph-name="zero" horiz-adv-x="460" d="M222 -8Q166 -8 128 8T67 60T33 156T22 301Q22 390 33 452T69 553T135 609T235 627Q292 627 330 611T393 557T427 460T437 313Q437 226 426 165T390 66T324 10T222 -8ZM224 97Q252 97 269 107T297 144T310
213T314 323Q314 378 311 416T299 477T274 510T230 521Q203 521 187 511T161 475T148 406T144 296Q144 240 146 202T157 141T182 108T224 97Z" />
<glyph unicode="1" glyph-name="one" horiz-adv-x="413" d="M51 105H166V491Q135 479 111 465T77 443L20 531Q30 540 54 555T112 586T190 613T284 624V105H400V0H51V105Z" />
<glyph unicode="2" glyph-name="two" horiz-adv-x="460" d="M24 0V103L185 260Q206 280 226 303T263 351T290 401T301 450Q301 487 280 504T231 521Q207 521 190 511T163 488T147 462T140 443L29 490Q38 517 54 542T95 586T157 616T243 627Q287 627 321 614T379
578T415 522T427 452Q427 421 419 392T393 333T345 268T271 192L179 105H432V0H24Z" />
<glyph unicode="3" glyph-name="three" horiz-adv-x="460" d="M124 167Q128 157 134 145T152 123T180 105T221 97Q260 97 282 117T305 177Q307 224 274 251T170 278H136V377H170Q240 377 266 399T292 456Q292 485 275 503T219 522Q181 522 159 504T123 453L21
509Q43 563 93 595T221 627Q260 627 295 619T356 592T398 544T414 474Q414 442 405 418T380 376T346 347T307 329Q360 315 394 278T428 176Q428 128 412 94T368 37T301 3T216 -8Q167 -8 133 3T75 31T37 68T13 109L124 167Z" />
<glyph unicode="4" glyph-name="four" horiz-adv-x="460" d="M10 239L212 618H389V250H458V148H389V0H268V148H10V239ZM268 250V510L131 250H268Z" />
<glyph unicode="5" glyph-name="five" horiz-adv-x="460" d="M105 162Q109 154 116 143T137 122T168 105T213 97Q260 97 282 128T305 206Q305 253 286 283T218 314Q196 314 180 307T152 290H60L87 618H415V513H184L174 390Q184 395 201 401T246 407Q297 407 332
391T388 347T419 286T428 214Q428 165 416 124T377 54T309 9T212 -8Q167 -8 134 2T77 27T38 60T16 93L105 162Z" />
<glyph unicode="6" glyph-name="six" horiz-adv-x="460" d="M323 473Q315 491 299 506T246 521Q199 521 178 488T152 371Q163 377 187 383T246 389Q338 389 388 340T439 196Q439 103 389 48T234 -8Q183 -8 145 8T81 59T42 150T29 288Q29 364 41 427T80 534T150
602T258 627Q294 627 321 619T368 598T402 565T426 524L323 473ZM149 246Q149 172 170 135T242 97Q279 97 299 119T319 189Q319 241 295 263T219 285Q194 285 176 281T149 271V246Z" />
<glyph unicode="7" glyph-name="seven" horiz-adv-x="460" d="M101 0Q110 40 130 98T177 225T238 367T309 513H32V618H424V533Q386 452 355 373T299 224T258 97T230 0H101Z" />
<glyph unicode="8" glyph-name="eight" horiz-adv-x="460" d="M319 329Q384 300 410 264T437 172Q437 90 385 41T233 -8Q180 -8 141 5T75 41T36 95T22 162Q22 216 50 259T135 330Q93 352 68 386T42 470Q42 500 53 528T87 579T144 614T227 627Q275 627 310 614T370
578T405 528T417 469Q417 421 391 386T319 329ZM222 279Q175 255 160 231T145 179Q145 141 166 117T233 93Q269 93 291 111T314 171Q314 206 293 233T222 279ZM235 379Q270 392 284 412T298 460Q298 489 282 508T231 528Q196 528 179 510T161 462Q161 430 182 410T235
379Z" />
<glyph unicode="9" glyph-name="nine" horiz-adv-x="460" d="M134 164Q151 97 210 97Q258 97 282 137T307 244Q299 239 274 231T210 222Q122 222 71 275T20 426Q20 517 68 572T221 627Q275 627 314 611T379 559T417 467T430 330Q430 252 418 190T379 83T310 16T207
-8Q130 -8 89 24T28 107L134 164ZM310 372Q310 444 290 482T219 521Q183 521 162 499T140 426Q140 373 164 351T238 328Q264 328 281 334T310 346V372Z" />
<glyph unicode=":" glyph-name="colon" horiz-adv-x="218" d="M37 63Q37 94 57 114T109 135Q141 135 161 114T182 63Q182 33 162 13T109 -8Q77 -8 57 12T37 63ZM37 374Q37 405 57 425T109 446Q141 446 161 425T182 374Q182 344 162 324T109 303Q77 303 57 323T37 374Z" />
<glyph unicode=";" glyph-name="semicolon" horiz-adv-x="218" d="M52 106H173L115 -101H12L52 106ZM37 374Q37 405 57 425T109 446Q141 446 161 425T182 374Q182 344 162 324T109 303Q77 303 57 323T37 374Z" />
<glyph unicode="&lt;" glyph-name="less" horiz-adv-x="459" d="M41 309L418 472V371L150 261L418 151V50L41 213V309Z" />
<glyph unicode="=" glyph-name="equal" horiz-adv-x="459" d="M31 217H429V121H31V217ZM31 401H429V305H31V401Z" />
<glyph unicode="&gt;" glyph-name="greater" horiz-adv-x="459" d="M41 151L309 261L41 371V472L418 309V213L41 50V151Z" />
<glyph unicode="?" glyph-name="question" horiz-adv-x="393" d="M120 190Q122 232 133 262T159 317T190 361T221 400T245 439T254 486Q254 517 239 536T188 556Q169 556 156 551T134 537T120 520T110 502L10 560Q17 577 31 596T69 631T125 658T200 669Q283 669
333 626T383 502Q383 447 362 409T314 337T262 270T229 190H120ZM99 63Q99 94 119 114T171 135Q203 135 223 114T244 63Q244 33 224 13T171 -8Q139 -8 119 12T99 63Z" />
<glyph unicode="@" glyph-name="at" horiz-adv-x="847" d="M597 -168Q585 -174 568 -178T532 -186T491 -190T449 -191Q249 -191 147 -79T45 239Q45 338 69 417T142 551T266 637T443 667Q535 667 603 643T717 573T784 464T807 319Q807 157 725 74T470 -10Q354 -10
299 27T243 132Q243 210 309 249T494 296V317Q494 331 493 343T486 364T469 378T436 384Q375 384 347 332L256 386Q265 403 281 419T321 448T375 469T443 477Q487 477 518 467T568 438T596 394T605 341V102Q651 120 672 172T693 308Q693 436 635 499T447 563Q367
563 312 541T222 476T173 375T158 241Q158 74 229 -4T449 -83Q496 -83 535 -76T597 -58V-168ZM494 208Q450 205 424 198T383 182T363 161T358 137Q358 111 384 98T470 85Q476 85 482 85T494 86V208Z" />
<glyph unicode="A" glyph-name="A" horiz-adv-x="579" d="M173 640Q187 648 215 658T288 668Q327 668 352 659T396 628T426 572T450 487L559 0H430L389 185H187L145 0H20L173 640ZM365 294L336 427Q327 470 321 495T309 533T299 549T285 553Q274 553 270 549L212
294H365Z" />
<glyph unicode="B" glyph-name="B" horiz-adv-x="524" d="M63 637Q74 643 92 649T134 659T185 666T239 669Q302 669 345 656T417 619T457 563T470 492Q470 457 461 433T436 391T401 364T364 348Q384 343 407 333T451 305T484 258T497 188Q497 129 475 91T418 30T337
-2T244 -11Q172 -11 126 0T63 22V637ZM190 104Q194 101 207 100T241 98Q303 98 333 120T364 191Q364 239 334 263T223 288H190V104ZM217 393Q288 393 315 415T342 481Q342 499 338 513T322 538T290 555T238 561Q224 561 210 560T190 557V393H217Z" />
<glyph unicode="C" glyph-name="C" horiz-adv-x="523" d="M506 54Q497 45 481 34T440 13T384 -4T309 -11Q227 -11 175 15T94 87T54 193T43 322Q43 392 53 455T91 565T169 641T300 669Q350 669 385 657T444 625T482 584T504 540L394 484Q389 495 382 507T363 531T334
549T293 556Q226 556 200 502T173 330Q173 211 205 157T316 103Q367 103 397 120T445 155L506 54Z" />
<glyph unicode="D" glyph-name="D" horiz-adv-x="587" d="M63 632Q76 639 98 645T148 657T209 666T273 669Q348 669 399 648T483 585T529 483T544 345Q544 237 527 168T475 60T385 5T257 -11Q218 -11 184 -7T125 3T83 14T63 23V632ZM190 114Q204 107 226 105T274
102Q313 102 339 112T382 150T406 224T413 346Q413 452 385 504T280 556Q253 556 229 553T190 545V114Z" />
<glyph unicode="E" glyph-name="E" horiz-adv-x="495" d="M60 658H445V549H187V401H404V290H187V109H455V0H60V658Z" />
<glyph unicode="F" glyph-name="F" horiz-adv-x="467" d="M63 658H448V549H190V387H394V276H190V0H63V658Z" />
<glyph unicode="G" glyph-name="G" horiz-adv-x="561" d="M285 363H512V43Q484 22 436 6T312 -11Q230 -11 178 14T95 83T54 189T43 322Q43 394 54 457T94 567T175 641T309 669Q360 669 397 656T460 623T500 579T522 534L410 485Q404 497 396 510T375 533T343 549T295
556Q230 556 202 505T173 330Q173 268 180 225T203 154T247 114T316 101Q342 101 359 103T388 110V254H285V363Z" />
<glyph unicode="H" glyph-name="H" horiz-adv-x="622" d="M63 658H190V403H434V658H559V0H434V291H190V0H63V658Z" />
<glyph unicode="I" glyph-name="I" horiz-adv-x="263" d="M68 658H195V0H68V658Z" />
<glyph unicode="J" glyph-name="J" horiz-adv-x="399" d="M110 142Q115 133 127 118T166 102Q209 102 209 151V658H336V153Q336 102 322 70T283 20T229 -4T167 -11Q130 -11 103 -3T57 19T26 46T7 73L110 142Z" />
<glyph unicode="K" glyph-name="K" horiz-adv-x="544" d="M63 658H190V372L392 658H545L343 371L544 0H405L265 260L190 154V0H63V658Z" />
<glyph unicode="L" glyph-name="L" horiz-adv-x="460" d="M58 658H185V109H442V0H58V658Z" />
<glyph unicode="M" glyph-name="M" horiz-adv-x="761" d="M63 658H235L311 419Q351 294 367 223T385 144Q386 148 400 219T457 422L534 658H698V0H577V190Q577 330 579 401T583 477Q582 474 578 456T565 408T545 336T518 247L438 0H323L243 248Q228 293 217 332T197
402T183 451T177 476Q177 469 180 398T184 190V0H63V658Z" />
<glyph unicode="N" glyph-name="N" horiz-adv-x="637" d="M63 658H205L349 403Q376 356 396 316T430 247T452 200T461 179Q460 186 457 253T453 445V658H574V0H440L292 261Q235 361 207 422T177 490Q178 481 181 419T184 227V0H63V658Z" />
<glyph unicode="O" glyph-name="O" horiz-adv-x="615" d="M304 -11Q227 -11 177 11T97 77T55 182T43 326Q43 405 54 468T96 576T178 645T311 669Q388 669 438 647T518 582T560 476T572 332Q572 252 561 188T519 80T437 13T304 -11ZM306 102Q346 102 372 113T413
152T435 223T442 334Q442 395 436 437T415 505T375 544T309 556Q270 556 244 544T202 505T180 435T173 328Q173 262 180 219T202 149T243 113T306 102Z" />
<glyph unicode="P" glyph-name="P" horiz-adv-x="513" d="M63 635Q92 651 143 660T245 669Q371 669 428 608T486 438Q486 370 469 323T422 245T349 202T256 188Q238 188 220 189T190 194V0H63V635ZM190 305Q191 303 197 302T212 301T229 300T245 299Q273 299 294
305T329 325T350 363T357 424Q357 463 351 488T330 529T295 550T244 556Q202 556 190 551V305Z" />
<glyph unicode="Q" glyph-name="Q" horiz-adv-x="615" d="M604 -130Q596 -135 579 -138T540 -141Q492 -141 454 -131T383 -104T324 -62T272 -9Q204 -6 160 18T90 86T54 190T43 326Q43 405 54 468T96 576T178 645T311 669Q388 669 438 647T518 582T560 476T572
332Q572 267 565 214T540 120T492 49T414 4Q437 -20 465 -25T539 -30Q551 -30 562 -28T579 -22L604 -130ZM306 102Q346 102 372 113T413 152T435 223T442 334Q442 395 436 437T415 505T375 544T309 556Q270 556 244 544T202 505T180 435T173 328Q173 262 180 219T202
149T243 113T306 102Z" />
<glyph unicode="R" glyph-name="R" horiz-adv-x="538" d="M63 635Q93 651 145 660T254 669Q372 669 432 613T492 458Q492 386 463 338T381 263L520 0H380L258 235H235Q226 235 211 236T190 238V0H63V635ZM190 345Q198 343 213 343T242 343Q268 343 290 348T327
366T352 397T361 446Q361 508 335 532T250 556Q243 556 234 556T216 556T200 554T190 552V345Z" />
<glyph unicode="S" glyph-name="S" horiz-adv-x="491" d="M114 188Q119 177 128 163T152 135T190 112T245 102Q271 102 288 109T315 127T329 151T333 179Q333 211 312 230T258 263T189 292T120 330T67 389T45 482Q45 526 60 560T104 619T171 656T257 669Q301 669
335 659T394 633T435 597T461 554L363 490Q357 501 348 513T325 534T292 550T248 556Q205 556 187 535T169 490Q169 460 190 442T244 410T314 381T384 342T438 281T460 185Q460 133 442 96T394 35T326 0T248 -11Q197 -11 158 0T91 29T44 69T16 116L114 188Z" />
<glyph unicode="T" glyph-name="T" horiz-adv-x="470" d="M172 549H13V658H456V549H299V0H172V549Z" />
<glyph unicode="U" glyph-name="U" horiz-adv-x="593" d="M63 658H190V251Q190 201 198 172T223 127T266 107T327 102Q334 102 344 103T366 105T387 109T404 113V658H530V38Q501 19 444 4T307 -11Q235 -11 188 3T114 48T75 123T63 230V658Z" />
<glyph unicode="V" glyph-name="V" horiz-adv-x="583" d="M16 658H156L236 358Q249 308 260 264T279 187T291 134T297 110Q297 112 301 131T314 184T332 261T357 357L437 658H568L373 0H210L16 658Z" />
<glyph unicode="W" glyph-name="W" horiz-adv-x="903" d="M26 658H165L224 365Q233 318 241 275T254 199T263 144T267 118Q267 120 271 140T281 195T297 272T317 363L386 658H527L596 364Q606 318 615 275T630 199T641 144T646 118Q646 120 649 140T658 195T671
272T689 364L748 658H878L724 0H561L510 204Q496 261 486 308T468 391T457 449T452 478Q450 465 436 394T393 207L342 0H179L26 658Z" />
<glyph unicode="X" glyph-name="X" horiz-adv-x="574" d="M205 342L27 658H169L289 434L405 658H545L366 344L564 0H420L285 248L151 0H10L205 342Z" />
<glyph unicode="Y" glyph-name="Y" horiz-adv-x="524" d="M199 214L5 658H144L265 356L385 658H519L325 214V0H199V214Z" />
<glyph unicode="Z" glyph-name="Z" horiz-adv-x="515" d="M35 99L335 549H37V658H485V559L184 109H485V0H35V99Z" />
<glyph unicode="[" glyph-name="bracketleft" horiz-adv-x="292" d="M70 682H267V602H182V-122H267V-202H70V682Z" />
<glyph unicode="\" glyph-name="backslash" horiz-adv-x="404" d="M5 687H123L399 -39H281L5 687Z" />
<glyph unicode="]" glyph-name="bracketright" horiz-adv-x="292" d="M25 -202V-122H110V602H25V682H222V-202H25Z" />
<glyph unicode="^" glyph-name="asciicircum" horiz-adv-x="459" d="M198 658H260L429 305H330L230 529L130 305H31L198 658Z" />
<glyph unicode="_" glyph-name="underscore" horiz-adv-x="500" d="M-5 -55H505V-153H-5V-55Z" />
<glyph unicode="`" glyph-name="grave" horiz-adv-x="320" d="M51 680H195L269 538H165L51 680Z" />
<glyph unicode="a" glyph-name="a" horiz-adv-x="452" d="M46 394Q53 409 68 425T107 456T163 480T237 489Q324 489 364 451T404 346V37Q375 15 324 2T212 -11Q131 -11 82 21T33 128Q33 201 94 245T287 299V335Q287 371 270 381T229 392Q196 392 175 377T141 337L46
394ZM287 206Q266 204 243 201T200 190T167 169T154 134Q154 110 171 97T226 83Q241 83 258 85T287 94V206Z" />
<glyph unicode="b" glyph-name="b" horiz-adv-x="474" d="M52 666H169V479Q180 482 200 485T247 489Q301 489 338 473T399 425T433 350T444 249Q444 172 426 122T378 43T307 3T222 -9Q155 -9 110 5T52 30V666ZM169 96Q176 92 190 91T214 89Q240 89 260 96T294
121T315 169T322 247Q322 318 300 354T218 391Q208 391 193 390T169 383V96Z" />
<glyph unicode="c" glyph-name="c" horiz-adv-x="415" d="M400 47Q392 39 378 29T344 10T297 -5T235 -11Q127 -11 78 54T28 238Q28 295 39 341T76 420T140 471T233 489Q306 489 347 460T403 382L304 335Q296 358 281 374T233 390Q188 390 169 353T149 241Q149
166 171 128T248 90Q282 90 304 102T343 132L400 47Z" />
<glyph unicode="d" glyph-name="d" horiz-adv-x="473" d="M304 666H421V40Q414 35 400 27T363 12T309 -2T237 -8Q193 -8 155 3T89 42T46 117T30 235Q30 357 80 423T246 489Q259 489 278 488T304 484V666ZM304 385Q296 388 286 389T258 391Q200 391 176 356T151
240Q151 192 158 163T178 118T209 96T252 90Q265 90 280 92T304 101V385Z" />
<glyph unicode="e" glyph-name="e" horiz-adv-x="449" d="M417 45Q391 19 346 4T241 -11Q185 -11 145 5T80 53T42 130T30 232Q30 284 40 330T74 412T137 468T237 489Q287 489 321 475T377 435T408 376T418 304Q418 266 414 236T408 194H151Q152 135 179 113T251
90Q288 90 316 102T362 134L417 45ZM302 281Q304 287 304 297T305 315Q305 357 288 374T235 392Q196 392 175 368T151 281H302Z" />
<glyph unicode="f" glyph-name="f" horiz-adv-x="333" d="M87 386H16V478H87V504Q87 592 128 634T248 677Q278 677 299 672T335 659T358 645T370 633L314 554Q309 561 294 568T259 576Q230 576 217 561T204 509V478H324V386H204V0H87V386Z" />
<glyph unicode="g" glyph-name="g" horiz-adv-x="465" d="M138 -36Q149 -54 172 -69T230 -84Q271 -84 284 -63T298 -3V22Q291 19 275 17T234 14Q125 14 78 73T30 245Q30 302 42 347T81 423T152 472T261 489Q309 489 350 481T415 461V-9Q415 -64 399 -98T355 -150T295
-175T229 -182Q193 -182 164 -175T114 -157T79 -132T58 -103L138 -36ZM298 385Q291 387 280 389T253 391Q201 391 176 359T151 247Q151 175 173 144T250 113Q261 113 275 115T298 122V385Z" />
<glyph unicode="h" glyph-name="h" horiz-adv-x="480" d="M52 666H169V480Q178 482 200 485T257 489Q310 489 344 475T398 433T425 368T433 282V0H316V282Q316 317 311 338T296 371T269 387T230 391Q215 391 198 390T169 383V0H52V666Z" />
<glyph unicode="i" glyph-name="i" horiz-adv-x="232" d="M57 478H174V0H57V478ZM44 607Q44 636 65 656T115 676Q145 676 166 656T187 607Q187 578 166 559T115 539Q86 539 65 558T44 607Z" />
<glyph unicode="j" glyph-name="j" horiz-adv-x="239" d="M-28 -52Q-25 -55 -21 -60T-10 -70T5 -79T26 -83Q43 -83 53 -73T64 -33V478H181V-29Q181 -74 169 -104T137 -151T90 -175T37 -182Q6 -182 -16 -176T-53 -162T-77 -145T-90 -130L-28 -52ZM51 607Q51 636
72 656T122 676Q152 676 173 656T194 607Q194 578 173 559T122 539Q93 539 72 558T51 607Z" />
<glyph unicode="k" glyph-name="k" horiz-adv-x="461" d="M52 666H169V301Q188 324 210 351T252 404T289 449T315 478H467L305 282L454 0H322L225 184L169 116V0H52V666Z" />
<glyph unicode="l" glyph-name="l" horiz-adv-x="254" d="M52 666H169V150Q169 125 175 110T214 94Q216 94 222 94T234 95L239 -1Q234 -3 219 -4T186 -6Q156 -6 132 -1T90 19T62 58T52 123V666Z" />
<glyph unicode="m" glyph-name="m" horiz-adv-x="686" d="M52 459Q74 466 106 472T174 481T250 487T326 489Q421 489 481 481T577 450T625 388T638 288V0H521V272Q521 308 517 330T501 365T465 383T405 390V0H288V390Q276 390 260 390T227 388T195 386T169 382V0H52V459Z" />
<glyph unicode="n" glyph-name="n" horiz-adv-x="481" d="M52 456Q81 470 130 479T238 489Q294 489 331 477T391 440T423 380T433 299V0H316V257Q316 288 314 312T304 354T278 381T229 390Q212 390 195 388T169 383V0H52V456Z" />
<glyph unicode="o" glyph-name="o" horiz-adv-x="479" d="M234 -11Q176 -11 137 5T74 52T40 128T30 232Q30 293 41 340T77 421T143 471T244 489Q302 489 341 473T405 426T439 350T449 246Q449 187 439 140T404 59T338 7T234 -11ZM236 87Q288 87 308 124T328 251Q328
324 312 357T243 391Q216 391 198 383T170 355T155 306T151 233Q151 195 154 168T167 122T192 96T236 87Z" />
<glyph unicode="p" glyph-name="p" horiz-adv-x="473" d="M52 455Q68 464 89 470T133 481T179 487T223 489Q286 489 328 473T396 426T433 352T444 255Q444 180 429 130T385 50T316 7T227 -6Q208 -6 193 -5T169 -2V-185H52V455ZM169 98Q184 93 216 93Q273 93 297
130T322 252Q322 324 299 357T218 391Q201 391 189 390T169 385V98Z" />
<glyph unicode="q" glyph-name="q" horiz-adv-x="473" d="M304 -4Q276 -9 242 -9Q182 -9 142 7T76 54T41 129T30 230Q30 290 42 337T81 419T153 471T263 489Q276 489 297 488T340 484T385 476T421 463V-185H304V-4ZM304 387Q296 389 287 390T262 391Q232 391 211
383T177 357T157 308T151 232Q151 189 157 162T175 118T207 96T253 90Q264 90 278 91T304 97V387Z" />
<glyph unicode="r" glyph-name="r" horiz-adv-x="352" d="M53 453Q65 460 83 466T123 478T166 486T207 489Q261 489 296 472T352 416L260 364Q255 372 244 381T208 391Q184 391 170 384V0H53V453Z" />
<glyph unicode="s" glyph-name="s" horiz-adv-x="406" d="M98 147Q111 122 136 105T200 87Q232 87 246 99T261 132Q261 152 244 163T202 182T147 200T92 226T49 269T32 340Q32 411 80 450T207 489Q244 489 273 482T323 462T357 434T378 402L291 345Q280 367 259
379T204 392Q145 392 145 348Q145 328 162 317T205 296T261 277T317 251T360 209T378 142Q378 99 363 70T322 22T265 -3T200 -11Q122 -11 78 16T14 84L98 147Z" />
<glyph unicode="t" glyph-name="t" horiz-adv-x="344" d="M84 386H15V478H84V602H201V478H314V386H201V160Q201 128 209 110T245 92Q260 92 274 98T300 115L344 28Q328 14 297 2T217 -10Q149 -10 117 22T84 131V386Z" />
<glyph unicode="u" glyph-name="u" horiz-adv-x="477" d="M48 478H165V214Q165 185 167 163T177 125T203 101T252 92Q268 92 284 95T308 104V478H425V35Q397 15 350 3T248 -10Q186 -10 148 3T87 43T56 108T48 198V478Z" />
<glyph unicode="v" glyph-name="v" horiz-adv-x="471" d="M10 478H142L184 324Q196 280 206 241T223 171T235 121T241 97Q242 101 246 120T257 169T275 238T297 323L339 478H461L314 0H156L10 478Z" />
<glyph unicode="w" glyph-name="w" horiz-adv-x="682" d="M20 478H153L183 324Q189 289 194 257T204 200T210 157T214 137Q215 140 218 157T226 199T238 257T254 323L292 478H406L443 323Q450 291 456 260T468 204T476 162T481 138Q481 143 483 160T490 203T499
259T512 323L543 478H662L552 0H412L394 79Q384 124 375 163T359 234T348 286T342 314Q341 307 337 287T325 236T309 166T288 80L268 0H130L20 478Z" />
<glyph unicode="x" glyph-name="x" horiz-adv-x="448" d="M148 247L13 478H149L230 328L308 478H439L301 247L443 0H307L220 163L135 0H5L148 247Z" />
<glyph unicode="y" glyph-name="y" horiz-adv-x="465" d="M69 -61Q77 -68 90 -75T122 -83Q145 -83 158 -67T183 -14L190 11Q166 29 145 67T104 171L15 478H142L205 238Q214 205 221 182T236 148L334 478H455L285 -43Q271 -87 254 -114T216 -156T172 -177T124 -183Q79
-183 55 -172T20 -150L69 -61Z" />
<glyph unicode="z" glyph-name="z" horiz-adv-x="418" d="M30 85L239 383H37V478H386V393L177 95H388V0H30V85Z" />
<glyph unicode="{" glyph-name="braceleft" horiz-adv-x="312" d="M101 58Q101 83 99 104T90 141T69 170T30 188V271Q54 277 68 289T90 317T99 355T101 402V489Q101 538 111 574T145 634T207 668T302 680V596Q268 596 250 587T223 560T213 516T211 456V401Q211
371 208 345T197 296T172 257T128 230Q155 219 171 202T196 163T208 115T211 58V3Q211 -30 212 -56T222 -100T249 -127T302 -136V-220Q246 -220 208 -209T146 -174T112 -115T101 -29V58Z" />
<glyph unicode="|" glyph-name="bar" horiz-adv-x="356" d="M122 765H234V-178H122V765Z" />
<glyph unicode="}" glyph-name="braceright" horiz-adv-x="312" d="M10 -136Q44 -136 62 -127T89 -100T99 -56T101 3V58Q101 88 104 114T115 163T140 202T184 230Q157 240 141 257T116 296T104 344T101 401V456Q101 490 100 516T90 560T63 587T10 596V680Q66 680
104 669T166 634T200 575T211 489V402Q211 376 213 355T222 318T243 289T282 271V188Q258 182 244 170T222 142T213 104T211 58V-29Q211 -79 201 -115T167 -174T105 -208T10 -220V-136Z" />
<glyph unicode="~" glyph-name="asciitilde" horiz-adv-x="468" d="M94 404Q97 398 101 390T113 375T130 363T157 358Q179 358 198 364T238 377T280 390T328 396Q374 396 400 371T444 307L370 261Q361 280 348 292T307 304Q288 304 269 298T229 285T185 272T134
266Q100 266 69 284T15 354L94 404Z" />
</font>
</defs>
</svg>
